<?xml version="1.0" encoding="utf-8"?>
<!-- Generator: Adobe Illustrator 23.0.1, SVG Export Plug-In . SVG Version: 6.00 Build 0)  -->
<svg version="1.1" id="Layer_1" xmlns="http://www.w3.org/2000/svg" xmlns:xlink="http://www.w3.org/1999/xlink" x="0px" y="0px"
	 viewBox="0 0 13.1 13.1" style="enable-background:new 0 0 13.1 13.1;" xml:space="preserve">
<style type="text/css">
	.st0{fill:#388AB2;}
</style>
<g id="Group_6998" transform="translate(-327.261 -1076.519)">
	<path id="Path_870" class="st0" d="M338,1089.6h-8.3c-1.3,0-2.4-1.1-2.4-2.4c0-0.2,0.1-0.3,0.3-0.3c0.2,0,0.3,0.1,0.3,0.3
		c0,1,0.8,1.8,1.8,1.8h8.3c1,0,1.8-0.8,1.8-1.8c0-0.2,0.1-0.3,0.3-0.3c0.2,0,0.3,0.1,0.3,0.3C340.4,1088.6,339.3,1089.6,338,1089.6
		L338,1089.6z"/>
	<path id="Path_871" class="st0" d="M333.8,1087.6c-0.1,0-0.2,0-0.2-0.1l-2.1-2.1c-0.1-0.1-0.1-0.3,0-0.4s0.3-0.1,0.4,0c0,0,0,0,0,0
		l1.9,1.9l1.9-1.9c0.1-0.1,0.3-0.1,0.4,0c0.1,0.1,0.1,0.3,0,0.4l-2.1,2.1C334,1087.5,333.9,1087.6,333.8,1087.6z"/>
	<path id="Path_872" class="st0" d="M333.8,1087.6c-0.2,0-0.3-0.1-0.3-0.3v-10.4c0-0.2,0.1-0.3,0.3-0.3c0.2,0,0.3,0.1,0.3,0.3
		c0,0,0,0,0,0v10.4C334.1,1087.4,334,1087.6,333.8,1087.6z"/>
</g>
</svg>
