<?xml version="1.0" encoding="utf-8"?>
<!-- Generator: Adobe Illustrator 23.0.1, SVG Export Plug-In . SVG Version: 6.00 Build 0)  -->
<svg version="1.1" id="Layer_1" xmlns="http://www.w3.org/2000/svg" xmlns:xlink="http://www.w3.org/1999/xlink" x="0px" y="0px"
	 viewBox="0 0 70 52" style="enable-background:new 0 0 70 52;" xml:space="preserve">
<style type="text/css">
	.st0{fill:#FFFFFF;}
	.st1{fill:#50A446;}
</style>
<g>
	<path class="st0" d="M4.5,38.4H1.4c-0.4,0-0.7,0.1-1,0.4C0.1,39,0,39.3,0,39.7v2.4c0,0.4,0.2,0.9,0.5,1.2l3.3,3.9v2.2H2.1v-3H0v3.5
		c0,0.4,0.1,0.7,0.4,1c0.3,0.2,0.6,0.4,1,0.4h3.1c0.4,0,0.7-0.1,1-0.4c0.2-0.2,0.4-0.6,0.4-1v-2.8c0-0.4-0.2-0.9-0.5-1.2l-3.3-3.9
		v-1.9h1.7V43h2.1v-3.3c0-0.4-0.1-0.7-0.4-1C5.2,38.5,4.8,38.4,4.5,38.4z"/>
	<path class="st0" d="M12,49.5H10V38.4H8v11.7c0,0.4,0.1,0.7,0.4,1s0.6,0.4,1,0.4h3.3c0.4,0,0.7-0.1,1-0.4c0.3-0.2,0.4-0.6,0.4-1
		V38.4H12V49.5z"/>
	<polygon class="st0" points="20.2,44.8 17.9,38.4 16.2,38.4 16.2,51.4 18.2,51.4 18.2,44.8 20.7,51.4 22.3,51.4 22.3,38.4 
		20.2,38.4 	"/>
	<path class="st0" d="M27.7,38.4h-3.3v13h3.3c0.8,0,1.4-0.3,2-0.8c0.5-0.5,0.8-1.1,0.8-1.9v-7.7c0-0.8-0.3-1.4-0.8-1.9
		C29.2,38.6,28.5,38.4,27.7,38.4z M26.5,40.3h1c0.3,0,0.5,0.1,0.6,0.2c0.2,0.2,0.2,0.3,0.2,0.6v7.5c0,0.4-0.1,0.5-0.2,0.6
		c-0.2,0.2-0.4,0.2-0.7,0.2h-1V40.3z"/>
	<path class="st0" d="M34.4,38.4l-2.3,12.5l0,0.1v0.5h2l0.4-2.7h1.6l0.4,2.7h2.1l-2.3-13.1H34.4z M34.8,46.8l0.5-3l0.5,3H34.8z"/>
	<path class="st0" d="M46.2,44.3v-4.6c0-0.4-0.1-0.7-0.4-1c-0.3-0.2-0.6-0.4-1-0.4h-4.6v13h2.1v-6.1l2.1,6.1h2.2
		c0,0-1.5-4.1-2.1-5.8C46,45.7,46.2,44.7,46.2,44.3z M42.3,43.9v-3.6h1.8v3.5h-1.7L42.3,43.9z"/>
	<path class="st0" d="M53.6,44.8l-0.3-0.2l0.2-0.1c0.4-0.3,0.6-0.7,0.6-1.2v-3.6c0-0.4-0.1-0.7-0.4-1c-0.3-0.2-0.6-0.4-1-0.4h-4.5
		v13h4.5c0.4,0,0.7-0.1,1-0.4c0.3-0.2,0.4-0.6,0.4-1V46C54.2,45.3,53.9,45,53.6,44.8z M50.4,43.7v-3.4h1.7v2.9l-0.7,0.5H50.4z
		 M51.4,45.6l0.8,0.5v3.4h-1.7v-3.9H51.4z"/>
	<path class="st0" d="M58.1,38.4l-2.3,12.5l0,0.1v0.5h2l0.4-2.7h1.6l0.4,2.7h2.1L60,38.4H58.1z M58.5,46.8l0.5-3l0.5,3H58.5z"/>
	<polygon class="st0" points="68,38.4 68,44.8 65.6,38.4 64,38.4 64,51.4 66,51.4 66,44.8 68.4,51.4 70,51.4 70,38.4 	"/>
</g>
<path class="st0" d="M18.9,1v32.1h32.1V1H18.9z M48.3,30.3H36.2v-2.9l6.1-3.5v-2.6l-6.1,3.4V9.3H34v6.6l-5.9-3.2v2.6l5.9,3.4v11.7
	H21.7V3.8h26.5V30.3z"/>
<path class="st1" d="M39.6,14.8c-1.1,1.1-1.5,2.6-1.2,4c1.2,0.1,2.5-0.3,3.5-1.3c1.1-1.1,1.5-2.6,1.2-4
	C41.8,13.5,40.5,13.9,39.6,14.8z"/>
</svg>
